{
	"asset":{
		"generator":"Khronos glTF Blender I/O v4.4.56",
		"version":"2.0"
	},
	"scene":0,
	"scenes":[
		{
			"name":"Scene",
			"nodes":[
				9,
				15
			]
		}
	],
	"nodes":[
		{
			"name":"Cylinder.001_1",
			"rotation":[
				0,
				-0.9999919533729553,
				0,
				0.00401529623195529
			],
			"translation":[
				0,
				2.4826302528381348,
				0
			]
		},
		{
			"mesh":0,
			"name":"Object_19"
		},
		{
			"mesh":1,
			"name":"Object_20"
		},
		{
			"children":[
				1,
				2
			],
			"name":"Cylinder.006_6",
			"rotation":[
				0,
				-0.9999919533729553,
				0,
				0.00401529623195529
			],
			"translation":[
				0.053334467113018036,
				3.9604735374450684,
				-0.1600123941898346
			]
		},
		{
			"mesh":2,
			"name":"Object_22"
		},
		{
			"children":[
				4
			],
			"name":"Cylinder.007_7",
			"translation":[
				0.053334467113018036,
				1.2060027122497559,
				-0.1600123941898346
			]
		},
		{
			"name":"Cylinder_0",
			"translation":[
				0,
				-0.27184152603149414,
				0
			]
		},
		{
			"children":[
				0,
				3,
				5,
				6
			],
			"name":"GLTF_SceneRootNode",
			"rotation":[
				0.70710688829422,
				0,
				0,
				0.7071066498756409
			]
		},
		{
			"children":[
				7
			],
			"name":"root"
		},
		{
			"children":[
				8
			],
			"name":"Sketchfab_model",
			"rotation":[
				-0.70710688829422,
				0,
				0,
				0.7071066498756409
			],
			"translation":[
				0,
				6.46281623840332,
				0
			]
		},
		{
			"name":"Cylinder.001_1.001",
			"rotation":[
				0,
				-0.9999919533729553,
				0,
				0.00401529623195529
			],
			"translation":[
				0,
				2.4826302528381348,
				0
			]
		},
		{
			"name":"Cylinder.009_9",
			"translation":[
				9,
				-0.27184104919433594,
				0
			]
		},
		{
			"name":"Cylinder_0.001",
			"translation":[
				0,
				-0.27184152603149414,
				0
			]
		},
		{
			"children":[
				10,
				11,
				12
			],
			"name":"GLTF_SceneRootNode.001",
			"rotation":[
				0.70710688829422,
				0,
				0,
				0.7071066498756409
			]
		},
		{
			"children":[
				13
			],
			"name":"root.001"
		},
		{
			"children":[
				14
			],
			"name":"Sketchfab_model.001",
			"rotation":[
				-0.70710688829422,
				0,
				0,
				0.7071066498756409
			],
			"translation":[
				0,
				6.46281623840332,
				0
			]
		}
	],
	"materials":[
		{
			"doubleSided":true,
			"name":"Material.015",
			"pbrMetallicRoughness":{
				"baseColorFactor":[
					0.18447498977184296,
					0.5394794940948486,
					0.009134058840572834,
					1
				],
				"metallicFactor":0,
				"roughnessFactor":0.5
			}
		},
		{
			"doubleSided":true,
			"name":"Material.016",
			"pbrMetallicRoughness":{
				"baseColorFactor":[
					0,
					0,
					0,
					1
				]
			}
		},
		{
			"doubleSided":true,
			"name":"Material.011",
			"pbrMetallicRoughness":{
				"baseColorFactor":[
					0.18447498977184296,
					0.5394794940948486,
					0.009134058840572834,
					1
				],
				"metallicFactor":0,
				"roughnessFactor":0.5
			}
		}
	],
	"meshes":[
		{
			"name":"Object_9",
			"primitives":[
				{
					"attributes":{
						"POSITION":0,
						"NORMAL":1,
						"TEXCOORD_0":2
					},
					"indices":3,
					"material":0
				}
			]
		},
		{
			"name":"Object_10",
			"primitives":[
				{
					"attributes":{
						"POSITION":4,
						"NORMAL":5,
						"TEXCOORD_0":6
					},
					"indices":7,
					"material":1
				}
			]
		},
		{
			"name":"Object_11",
			"primitives":[
				{
					"attributes":{
						"POSITION":8,
						"NORMAL":9,
						"TEXCOORD_0":10
					},
					"indices":11,
					"material":2
				}
			]
		}
	],
	"images":[
		{
			"mimeType":"image/png",
			"name":"Material.001_baseColor",
			"uri":"textures/Material_001_baseColor.png"
		},
		{
			"mimeType":"image/png",
			"name":"Material.003_baseColor",
			"uri":"textures/Material_003_baseColor.png"
		}
	],
	"accessors":[
		{
			"bufferView":0,
			"componentType":5126,
			"count":600,
			"max":[
				1.2567158937454224,
				0.5245027542114258,
				1.2567157745361328
			],
			"min":[
				-1.2567157745361328,
				-0.499561607837677,
				-1.2567158937454224
			],
			"type":"VEC3"
		},
		{
			"bufferView":1,
			"componentType":5126,
			"count":600,
			"type":"VEC3"
		},
		{
			"bufferView":2,
			"componentType":5126,
			"count":600,
			"type":"VEC2"
		},
		{
			"bufferView":3,
			"componentType":5123,
			"count":960,
			"type":"SCALAR"
		},
		{
			"bufferView":4,
			"componentType":5126,
			"count":160,
			"max":[
				0.9998791217803955,
				0.5245027542114258,
				0.9998791217803955
			],
			"min":[
				-0.9998791217803955,
				-0.499561607837677,
				-0.9998791217803955
			],
			"type":"VEC3"
		},
		{
			"bufferView":5,
			"componentType":5126,
			"count":160,
			"type":"VEC3"
		},
		{
			"bufferView":6,
			"componentType":5126,
			"count":160,
			"type":"VEC2"
		},
		{
			"bufferView":7,
			"componentType":5123,
			"count":282,
			"type":"SCALAR"
		},
		{
			"bufferView":8,
			"componentType":5126,
			"count":544,
			"max":[
				1,
				2.2475099563598633,
				1
			],
			"min":[
				-1,
				-7.670748233795166,
				-1
			],
			"type":"VEC3"
		},
		{
			"bufferView":9,
			"componentType":5126,
			"count":544,
			"type":"VEC3"
		},
		{
			"bufferView":10,
			"componentType":5126,
			"count":544,
			"type":"VEC2"
		},
		{
			"bufferView":11,
			"componentType":5123,
			"count":1038,
			"type":"SCALAR"
		}
	],
	"bufferViews":[
		{
			"buffer":0,
			"byteLength":7200,
			"byteOffset":0,
			"target":34962
		},
		{
			"buffer":0,
			"byteLength":7200,
			"byteOffset":7200,
			"target":34962
		},
		{
			"buffer":0,
			"byteLength":4800,
			"byteOffset":14400,
			"target":34962
		},
		{
			"buffer":0,
			"byteLength":1920,
			"byteOffset":19200,
			"target":34963
		},
		{
			"buffer":0,
			"byteLength":1920,
			"byteOffset":21120,
			"target":34962
		},
		{
			"buffer":0,
			"byteLength":1920,
			"byteOffset":23040,
			"target":34962
		},
		{
			"buffer":0,
			"byteLength":1280,
			"byteOffset":24960,
			"target":34962
		},
		{
			"buffer":0,
			"byteLength":564,
			"byteOffset":26240,
			"target":34963
		},
		{
			"buffer":0,
			"byteLength":6528,
			"byteOffset":26804,
			"target":34962
		},
		{
			"buffer":0,
			"byteLength":6528,
			"byteOffset":33332,
			"target":34962
		},
		{
			"buffer":0,
			"byteLength":4352,
			"byteOffset":39860,
			"target":34962
		},
		{
			"buffer":0,
			"byteLength":2076,
			"byteOffset":44212,
			"target":34963
		}
	],
	"buffers":[
		{
			"byteLength":46288,
			"uri":"scene.bin"
		}
	]
}
