{
	"asset":{
		"generator":"Khronos glTF Blender I/O v4.4.56",
		"version":"2.0"
	},
	"scene":0,
	"scenes":[
		{
			"name":"Scene",
			"nodes":[
				2
			]
		}
	],
	"nodes":[
		{
			"mesh":0,
			"name":"Object_2",
			"scale":[
				23.536380767822266,
				23.5363826751709,
				23.5363826751709
			]
		},
		{
			"children":[
				0
			],
			"name":"48879d021d7b4c9b890a17ce429d925c.obj.cleaner.materialmerger.gle"
		},
		{
			"children":[
				1
			],
			"name":"Sketchfab_model",
			"rotation":[
				-0.70710688829422,
				0,
				0,
				0.7071066498756409
			]
		}
	],
	"materials":[
		{
			"doubleSided":true,
			"name":"palette",
			"pbrMetallicRoughness":{
				"baseColorTexture":{
					"index":0
				},
				"metallicFactor":0,
				"roughnessFactor":0.6000000238418579
			}
		}
	],
	"meshes":[
		{
			"name":"Object_0.001",
			"primitives":[
				{
					"attributes":{
						"POSITION":0,
						"NORMAL":1,
						"TEXCOORD_0":2
					},
					"indices":3,
					"material":0
				}
			]
		}
	],
	"textures":[
		{
			"sampler":0,
			"source":0
		}
	],
	"images":[
		{
			"mimeType":"image/png",
			"name":"palette_baseColor",
			"uri":"textures/palette_baseColor.png"
		}
	],
	"accessors":[
		{
			"bufferView":0,
			"componentType":5126,
			"count":3397,
			"max":[
				9.5,
				6.256635665893555,
				12
			],
			"min":[
				-9.5,
				-6.252209663391113,
				-2.842170943040401e-14
			],
			"type":"VEC3"
		},
		{
			"bufferView":1,
			"componentType":5126,
			"count":3397,
			"type":"VEC3"
		},
		{
			"bufferView":2,
			"componentType":5126,
			"count":3397,
			"type":"VEC2"
		},
		{
			"bufferView":3,
			"componentType":5123,
			"count":6396,
			"type":"SCALAR"
		}
	],
	"bufferViews":[
		{
			"buffer":0,
			"byteLength":40764,
			"byteOffset":0,
			"target":34962
		},
		{
			"buffer":0,
			"byteLength":40764,
			"byteOffset":40764,
			"target":34962
		},
		{
			"buffer":0,
			"byteLength":27176,
			"byteOffset":81528,
			"target":34962
		},
		{
			"buffer":0,
			"byteLength":12792,
			"byteOffset":108704,
			"target":34963
		}
	],
	"samplers":[
		{
			"magFilter":9729,
			"minFilter":9987
		}
	],
	"buffers":[
		{
			"byteLength":121496,
			"uri":"scene.bin"
		}
	]
}
