{
	"asset":{
		"generator":"Khronos glTF Blender I/O v4.4.56",
		"version":"2.0"
	},
	"scene":0,
	"scenes":[
		{
			"name":"Scene",
			"nodes":[
				20,
				21,
				22,
				23,
				24,
				25,
				26,
				27,
				28,
				29
			]
		}
	],
	"nodes":[
		{
			"mesh":0,
			"name":"Object_10",
			"translation":[
				-0.8337727785110474,
				0,
				10.45339298248291
			]
		},
		{
			"children":[
				0
			],
			"name":"b4_3",
			"scale":[
				0.24558861553668976,
				0.8932647705078125,
				0.3458101451396942
			],
			"translation":[
				0,
				0.897472083568573,
				-3.655355930328369
			]
		},
		{
			"mesh":1,
			"name":"Object_14",
			"translation":[
				-4.643862247467041,
				0,
				3.7040886878967285
			]
		},
		{
			"children":[
				2
			],
			"name":"b6_5",
			"scale":[
				0.3917555809020996,
				1,
				0.5570603609085083
			],
			"translation":[
				0,
				1.0144569873809814,
				-2.0992002487182617
			]
		},
		{
			"mesh":2,
			"name":"Object_16"
		},
		{
			"children":[
				4
			],
			"name":"g1_8",
			"rotation":[
				0,
				0.7071068286895752,
				0,
				0.7071067094802856
			],
			"scale":[
				0.27805545926094055,
				1,
				0.27805545926094055
			],
			"translation":[
				-2.5398476123809814,
				1.0132349729537964,
				-0.029493151232600212
			]
		},
		{
			"mesh":3,
			"name":"Object_18",
			"translation":[
				-0.0475962869822979,
				0,
				2.2370119094848633
			]
		},
		{
			"children":[
				6
			],
			"name":"g2_9",
			"rotation":[
				0,
				0.7071068286895752,
				0,
				0.7071067094802856
			],
			"scale":[
				0.2859274744987488,
				1,
				0.28592750430107117
			],
			"translation":[
				-3.894578218460083,
				0.9910587668418884,
				-0.029493151232600212
			]
		},
		{
			"mesh":4,
			"name":"Object_20",
			"translation":[
				-0.08738471567630768,
				0,
				4.107056617736816
			]
		},
		{
			"children":[
				8
			],
			"name":"g3_10",
			"rotation":[
				0,
				0.70710688829422,
				0,
				0.7071066498756409
			],
			"scale":[
				0.3114751875400543,
				1,
				0.3114752471446991
			],
			"translation":[
				-5.208876609802246,
				1.020882248878479,
				-0.029493151232600212
			]
		},
		{
			"mesh":5,
			"name":"Object_22",
			"translation":[
				-0.10428871214389801,
				0,
				4.727726936340332
			]
		},
		{
			"children":[
				10
			],
			"name":"g4_11",
			"rotation":[
				0,
				0.7071069478988647,
				0,
				0.7071065902709961
			],
			"scale":[
				0.39148303866386414,
				1,
				0.3914830684661865
			],
			"translation":[
				-6.581802845001221,
				1.020882248878479,
				-0.029493151232600212
			]
		},
		{
			"mesh":6,
			"name":"Object_24",
			"translation":[
				0,
				0,
				5.719292640686035
			]
		},
		{
			"children":[
				12
			],
			"name":"g5_12",
			"rotation":[
				0,
				0.70710688829422,
				0,
				0.7071066498756409
			],
			"scale":[
				0.2928294837474823,
				1,
				0.4449649453163147
			],
			"translation":[
				-8.195318222045898,
				1.0094116926193237,
				-0.029493151232600212
			]
		},
		{
			"mesh":7,
			"name":"Object_26",
			"translation":[
				0.04760203883051872,
				0,
				-11.232650756835938
			]
		},
		{
			"children":[
				14
			],
			"name":"g6_13",
			"rotation":[
				0,
				-0.7071065902709961,
				0,
				0.7071070671081543
			],
			"scale":[
				0.28592753410339355,
				1,
				0.28592759370803833
			],
			"translation":[
				-9.659996032714844,
				0.9910587668418884,
				-0.029493151232600212
			]
		},
		{
			"mesh":8,
			"name":"Object_32",
			"translation":[
				-2.254094123840332,
				0,
				4.856851100921631
			]
		},
		{
			"children":[
				16
			],
			"name":"tower_one_16",
			"rotation":[
				0,
				0,
				-1,
				0
			],
			"scale":[
				-0.3354143798351288,
				-0.9999999403953552,
				-0.3761972188949585
			],
			"translation":[
				-0.22595636546611786,
				1.014814853668213,
				1.7698043584823608
			]
		},
		{
			"children":[
				1,
				3,
				5,
				7,
				9,
				11,
				13,
				15,
				17
			],
			"name":"GLTF_SceneRootNode",
			"rotation":[
				0.70710688829422,
				0,
				0,
				0.7071066498756409
			]
		},
		{
			"children":[
				18
			],
			"name":"root"
		},
		{
			"children":[
				19
			],
			"name":"Sketchfab_model",
			"rotation":[
				-0.70710688829422,
				0,
				0,
				0.7071066498756409
			],
			"scale":[
				6.809045791625977,
				6.809048175811768,
				6.809048175811768
			],
			"translation":[
				0.0003117842134088278,
				0.020825203508138657,
				-0.015880374237895012
			]
		},
		{
			"name":"Armature_16",
			"rotation":[
				0.6071992516517639,
				0,
				0,
				0.7945496439933777
			],
			"scale":[
				0.6466114521026611,
				0.6466114521026611,
				0.6466114521026611
			],
			"translation":[
				0.006016644649207592,
				0.4018736183643341,
				-0.3064509630203247
			]
		},
		{
			"name":"Cube.001_11",
			"scale":[
				0.6466114521026611,
				0.6466114521026611,
				0.6466114521026611
			],
			"translation":[
				0.0003117842134088278,
				0.020825203508138657,
				-0.015880374237895012
			]
		},
		{
			"name":"Cube.002_12",
			"scale":[
				0.6466114521026611,
				0.6466114521026611,
				0.6466114521026611
			],
			"translation":[
				0.0003117842134088278,
				0.020825203508138657,
				-0.015880374237895012
			]
		},
		{
			"name":"Cube.003_13",
			"scale":[
				0.6466114521026611,
				0.6466114521026611,
				0.6466114521026611
			],
			"translation":[
				0.0003117842134088278,
				0.020825203508138657,
				-0.015880374237895012
			]
		},
		{
			"name":"Cube_10",
			"scale":[
				0.6466114521026611,
				0.6466114521026611,
				0.6466114521026611
			],
			"translation":[
				0.0003117842134088278,
				0.020825203508138657,
				-0.015880374237895012
			]
		},
		{
			"mesh":9,
			"name":"Object_13",
			"scale":[
				0.6466114521026611,
				0.6466114521026611,
				0.6466114521026611
			],
			"translation":[
				0.0003117842134088278,
				0.020825203508138657,
				-0.015880374237895012
			]
		},
		{
			"mesh":10,
			"name":"Object_19",
			"scale":[
				0.6466114521026611,
				0.6466114521026611,
				0.6466114521026611
			],
			"translation":[
				0.0003117842134088278,
				0.020825203508138657,
				-0.015880374237895012
			]
		},
		{
			"name":"Sphere.001_15",
			"scale":[
				0.6466114521026611,
				0.6466114521026611,
				0.6466114521026611
			],
			"translation":[
				0.0003117842134088278,
				0.020825203508138657,
				-0.015880374237895012
			]
		},
		{
			"name":"Sphere_14",
			"scale":[
				0.6466114521026611,
				0.6466114521026611,
				0.6466114521026611
			],
			"translation":[
				0.0003117842134088278,
				0.020825203508138657,
				-0.015880374237895012
			]
		}
	],
	"materials":[
		{
			"doubleSided":true,
			"name":"Material.014",
			"pbrMetallicRoughness":{
				"baseColorTexture":{
					"index":0
				},
				"metallicFactor":0,
				"roughnessFactor":0.5
			}
		},
		{
			"doubleSided":true,
			"name":"Material.016",
			"pbrMetallicRoughness":{
				"baseColorTexture":{
					"index":1
				},
				"metallicFactor":0,
				"roughnessFactor":0.5
			}
		},
		{
			"doubleSided":true,
			"name":"Material.005",
			"pbrMetallicRoughness":{
				"baseColorTexture":{
					"index":2
				},
				"metallicFactor":0.1772730052471161,
				"roughnessFactor":0
			}
		},
		{
			"doubleSided":true,
			"name":"Material.006",
			"pbrMetallicRoughness":{
				"baseColorTexture":{
					"index":3
				},
				"metallicFactor":0.1909089982509613,
				"roughnessFactor":0
			}
		},
		{
			"doubleSided":true,
			"name":"Material.007",
			"pbrMetallicRoughness":{
				"baseColorTexture":{
					"index":4
				},
				"metallicFactor":0.1318179965019226,
				"roughnessFactor":0
			}
		},
		{
			"doubleSided":true,
			"name":"Material.008",
			"pbrMetallicRoughness":{
				"baseColorTexture":{
					"index":5
				},
				"metallicFactor":0.15000000596046448,
				"roughnessFactor":0
			}
		},
		{
			"doubleSided":true,
			"name":"Material.009",
			"pbrMetallicRoughness":{
				"baseColorTexture":{
					"index":6
				},
				"metallicFactor":0.18181799352169037,
				"roughnessFactor":0
			}
		},
		{
			"doubleSided":true,
			"name":"Material.010",
			"pbrMetallicRoughness":{
				"baseColorTexture":{
					"index":7
				},
				"metallicFactor":0,
				"roughnessFactor":0.5
			}
		},
		{
			"doubleSided":true,
			"name":"tower_one.001",
			"pbrMetallicRoughness":{
				"baseColorTexture":{
					"index":8
				},
				"metallicFactor":0.1636359989643097,
				"roughnessFactor":0
			}
		},
		{
			"doubleSided":true,
			"name":"black.006",
			"pbrMetallicRoughness":{
				"baseColorFactor":[
					0.035217899829149246,
					0.035217899829149246,
					0.035217899829149246,
					1
				],
				"metallicFactor":0,
				"roughnessFactor":0.5
			}
		},
		{
			"doubleSided":true,
			"name":"black.007",
			"pbrMetallicRoughness":{
				"baseColorFactor":[
					0,
					0,
					0,
					1
				],
				"metallicFactor":0,
				"roughnessFactor":0.5
			}
		}
	],
	"meshes":[
		{
			"name":"Object_3",
			"primitives":[
				{
					"attributes":{
						"POSITION":0,
						"NORMAL":1,
						"TEXCOORD_0":2
					},
					"indices":3,
					"material":0
				}
			]
		},
		{
			"name":"Object_5",
			"primitives":[
				{
					"attributes":{
						"POSITION":4,
						"NORMAL":5,
						"TEXCOORD_0":6
					},
					"indices":7,
					"material":1
				}
			]
		},
		{
			"name":"Object_6",
			"primitives":[
				{
					"attributes":{
						"POSITION":8,
						"NORMAL":9,
						"TEXCOORD_0":10
					},
					"indices":11,
					"material":2
				}
			]
		},
		{
			"name":"Object_7",
			"primitives":[
				{
					"attributes":{
						"POSITION":12,
						"NORMAL":13,
						"TEXCOORD_0":14
					},
					"indices":15,
					"material":3
				}
			]
		},
		{
			"name":"Object_8",
			"primitives":[
				{
					"attributes":{
						"POSITION":16,
						"NORMAL":17,
						"TEXCOORD_0":18
					},
					"indices":19,
					"material":4
				}
			]
		},
		{
			"name":"Object_9",
			"primitives":[
				{
					"attributes":{
						"POSITION":20,
						"NORMAL":21,
						"TEXCOORD_0":22
					},
					"indices":11,
					"material":5
				}
			]
		},
		{
			"name":"Object_10",
			"primitives":[
				{
					"attributes":{
						"POSITION":23,
						"NORMAL":24,
						"TEXCOORD_0":25
					},
					"indices":11,
					"material":6
				}
			]
		},
		{
			"name":"Object_11",
			"primitives":[
				{
					"attributes":{
						"POSITION":26,
						"NORMAL":27,
						"TEXCOORD_0":28
					},
					"indices":29,
					"material":7
				}
			]
		},
		{
			"name":"Object_14",
			"primitives":[
				{
					"attributes":{
						"POSITION":30,
						"NORMAL":31,
						"TEXCOORD_0":32
					},
					"indices":33,
					"material":8
				}
			]
		},
		{
			"name":"Object_5.002",
			"primitives":[
				{
					"attributes":{
						"POSITION":34,
						"NORMAL":35,
						"TEXCOORD_0":36
					},
					"indices":37,
					"material":9
				}
			]
		},
		{
			"name":"Object_9.002",
			"primitives":[
				{
					"attributes":{
						"POSITION":38,
						"NORMAL":39,
						"TEXCOORD_0":40
					},
					"indices":41,
					"material":10
				}
			]
		}
	],
	"textures":[
		{
			"sampler":0,
			"source":0
		},
		{
			"sampler":0,
			"source":1
		},
		{
			"sampler":0,
			"source":2
		},
		{
			"sampler":0,
			"source":3
		},
		{
			"sampler":0,
			"source":4
		},
		{
			"sampler":0,
			"source":5
		},
		{
			"sampler":0,
			"source":6
		},
		{
			"sampler":0,
			"source":2
		},
		{
			"sampler":0,
			"source":6
		}
	],
	"images":[
		{
			"mimeType":"image/png",
			"name":"Material_014_baseColor",
			"uri":"textures/Material_014_baseColor.png"
		},
		{
			"mimeType":"image/png",
			"name":"Material_016_baseColor",
			"uri":"textures/Material_016_baseColor.png"
		},
		{
			"mimeType":"image/png",
			"name":"Material_005_baseColor",
			"uri":"textures/Material_005_baseColor.png"
		},
		{
			"mimeType":"image/png",
			"name":"Material_006_baseColor",
			"uri":"textures/Material_006_baseColor.png"
		},
		{
			"mimeType":"image/png",
			"name":"Material_007_baseColor",
			"uri":"textures/Material_007_baseColor.png"
		},
		{
			"mimeType":"image/png",
			"name":"Material_008_baseColor",
			"uri":"textures/Material_008_baseColor.png"
		},
		{
			"mimeType":"image/png",
			"name":"Material_009_baseColor",
			"uri":"textures/Material_009_baseColor.png"
		}
	],
	"accessors":[
		{
			"bufferView":0,
			"componentType":5126,
			"count":66,
			"max":[
				1,
				1,
				1.4799275398254395
			],
			"min":[
				-1,
				-1,
				-1.3827290534973145
			],
			"type":"VEC3"
		},
		{
			"bufferView":1,
			"componentType":5126,
			"count":66,
			"type":"VEC3"
		},
		{
			"bufferView":2,
			"componentType":5126,
			"count":66,
			"type":"VEC2"
		},
		{
			"bufferView":3,
			"componentType":5123,
			"count":108,
			"type":"SCALAR"
		},
		{
			"bufferView":4,
			"componentType":5126,
			"count":36,
			"max":[
				1,
				0.8343955278396606,
				1
			],
			"min":[
				-1,
				-1,
				-1
			],
			"type":"VEC3"
		},
		{
			"bufferView":5,
			"componentType":5126,
			"count":36,
			"type":"VEC3"
		},
		{
			"bufferView":6,
			"componentType":5126,
			"count":36,
			"type":"VEC2"
		},
		{
			"bufferView":7,
			"componentType":5123,
			"count":60,
			"type":"SCALAR"
		},
		{
			"bufferView":8,
			"componentType":5126,
			"count":24,
			"max":[
				1,
				2.197991371154785,
				1
			],
			"min":[
				-1,
				-1,
				-1
			],
			"type":"VEC3"
		},
		{
			"bufferView":9,
			"componentType":5126,
			"count":24,
			"type":"VEC3"
		},
		{
			"bufferView":10,
			"componentType":5126,
			"count":24,
			"type":"VEC2"
		},
		{
			"bufferView":11,
			"componentType":5123,
			"count":36,
			"type":"SCALAR"
		},
		{
			"bufferView":12,
			"componentType":5126,
			"count":38,
			"max":[
				1,
				3.159104824066162,
				1
			],
			"min":[
				-1.0432417392730713,
				-1,
				-1
			],
			"type":"VEC3"
		},
		{
			"bufferView":13,
			"componentType":5126,
			"count":38,
			"type":"VEC3"
		},
		{
			"bufferView":14,
			"componentType":5126,
			"count":38,
			"type":"VEC2"
		},
		{
			"bufferView":15,
			"componentType":5123,
			"count":54,
			"type":"SCALAR"
		},
		{
			"bufferView":16,
			"componentType":5126,
			"count":80,
			"max":[
				1,
				2.6644225120544434,
				1
			],
			"min":[
				-1,
				-1,
				-1
			],
			"type":"VEC3"
		},
		{
			"bufferView":17,
			"componentType":5126,
			"count":80,
			"type":"VEC3"
		},
		{
			"bufferView":18,
			"componentType":5126,
			"count":80,
			"type":"VEC2"
		},
		{
			"bufferView":19,
			"componentType":5123,
			"count":132,
			"type":"SCALAR"
		},
		{
			"bufferView":20,
			"componentType":5126,
			"count":24,
			"max":[
				1,
				1,
				1
			],
			"min":[
				-1,
				-1,
				-1
			],
			"type":"VEC3"
		},
		{
			"bufferView":21,
			"componentType":5126,
			"count":24,
			"type":"VEC3"
		},
		{
			"bufferView":22,
			"componentType":5126,
			"count":24,
			"type":"VEC2"
		},
		{
			"bufferView":23,
			"componentType":5126,
			"count":24,
			"max":[
				1,
				1.8098278045654297,
				1
			],
			"min":[
				-1,
				-1,
				-1
			],
			"type":"VEC3"
		},
		{
			"bufferView":24,
			"componentType":5126,
			"count":24,
			"type":"VEC3"
		},
		{
			"bufferView":25,
			"componentType":5126,
			"count":24,
			"type":"VEC2"
		},
		{
			"bufferView":26,
			"componentType":5126,
			"count":54,
			"max":[
				1,
				2.5294177532196045,
				1
			],
			"min":[
				-1.1817586421966553,
				-1,
				-1
			],
			"type":"VEC3"
		},
		{
			"bufferView":27,
			"componentType":5126,
			"count":54,
			"type":"VEC3"
		},
		{
			"bufferView":28,
			"componentType":5126,
			"count":54,
			"type":"VEC2"
		},
		{
			"bufferView":29,
			"componentType":5123,
			"count":78,
			"type":"SCALAR"
		},
		{
			"bufferView":30,
			"componentType":5126,
			"count":105,
			"max":[
				1.1810569763183594,
				3.6262288093566895,
				6.368956089019775
			],
			"min":[
				-1.1810569763183594,
				-1,
				-1.0219167470932007
			],
			"type":"VEC3"
		},
		{
			"bufferView":31,
			"componentType":5126,
			"count":105,
			"type":"VEC3"
		},
		{
			"bufferView":32,
			"componentType":5126,
			"count":105,
			"type":"VEC2"
		},
		{
			"bufferView":33,
			"componentType":5123,
			"count":222,
			"type":"SCALAR"
		},
		{
			"bufferView":34,
			"componentType":5126,
			"count":52,
			"max":[
				0.2607532739639282,
				-0.08795493841171265,
				-2.0122222900390625
			],
			"min":[
				-0.14560452103614807,
				-0.2558474838733673,
				-2.1625022888183594
			],
			"type":"VEC3"
		},
		{
			"bufferView":35,
			"componentType":5126,
			"count":52,
			"type":"VEC3"
		},
		{
			"bufferView":36,
			"componentType":5126,
			"count":52,
			"type":"VEC2"
		},
		{
			"bufferView":37,
			"componentType":5123,
			"count":72,
			"type":"SCALAR"
		},
		{
			"bufferView":38,
			"componentType":5126,
			"count":135,
			"max":[
				9.665974617004395,
				3.419865846633911,
				1.8544409275054932
			],
			"min":[
				6.897003650665283,
				3.1458187103271484,
				-0.27640897035598755
			],
			"type":"VEC3"
		},
		{
			"bufferView":39,
			"componentType":5126,
			"count":135,
			"type":"VEC3"
		},
		{
			"bufferView":40,
			"componentType":5126,
			"count":135,
			"type":"VEC2"
		},
		{
			"bufferView":41,
			"componentType":5123,
			"count":195,
			"type":"SCALAR"
		}
	],
	"bufferViews":[
		{
			"buffer":0,
			"byteLength":792,
			"byteOffset":0,
			"target":34962
		},
		{
			"buffer":0,
			"byteLength":792,
			"byteOffset":792,
			"target":34962
		},
		{
			"buffer":0,
			"byteLength":528,
			"byteOffset":1584,
			"target":34962
		},
		{
			"buffer":0,
			"byteLength":216,
			"byteOffset":2112,
			"target":34963
		},
		{
			"buffer":0,
			"byteLength":432,
			"byteOffset":2328,
			"target":34962
		},
		{
			"buffer":0,
			"byteLength":432,
			"byteOffset":2760,
			"target":34962
		},
		{
			"buffer":0,
			"byteLength":288,
			"byteOffset":3192,
			"target":34962
		},
		{
			"buffer":0,
			"byteLength":120,
			"byteOffset":3480,
			"target":34963
		},
		{
			"buffer":0,
			"byteLength":288,
			"byteOffset":3600,
			"target":34962
		},
		{
			"buffer":0,
			"byteLength":288,
			"byteOffset":3888,
			"target":34962
		},
		{
			"buffer":0,
			"byteLength":192,
			"byteOffset":4176,
			"target":34962
		},
		{
			"buffer":0,
			"byteLength":72,
			"byteOffset":4368,
			"target":34963
		},
		{
			"buffer":0,
			"byteLength":456,
			"byteOffset":4440,
			"target":34962
		},
		{
			"buffer":0,
			"byteLength":456,
			"byteOffset":4896,
			"target":34962
		},
		{
			"buffer":0,
			"byteLength":304,
			"byteOffset":5352,
			"target":34962
		},
		{
			"buffer":0,
			"byteLength":108,
			"byteOffset":5656,
			"target":34963
		},
		{
			"buffer":0,
			"byteLength":960,
			"byteOffset":5764,
			"target":34962
		},
		{
			"buffer":0,
			"byteLength":960,
			"byteOffset":6724,
			"target":34962
		},
		{
			"buffer":0,
			"byteLength":640,
			"byteOffset":7684,
			"target":34962
		},
		{
			"buffer":0,
			"byteLength":264,
			"byteOffset":8324,
			"target":34963
		},
		{
			"buffer":0,
			"byteLength":288,
			"byteOffset":8588,
			"target":34962
		},
		{
			"buffer":0,
			"byteLength":288,
			"byteOffset":8876,
			"target":34962
		},
		{
			"buffer":0,
			"byteLength":192,
			"byteOffset":9164,
			"target":34962
		},
		{
			"buffer":0,
			"byteLength":288,
			"byteOffset":9356,
			"target":34962
		},
		{
			"buffer":0,
			"byteLength":288,
			"byteOffset":9644,
			"target":34962
		},
		{
			"buffer":0,
			"byteLength":192,
			"byteOffset":9932,
			"target":34962
		},
		{
			"buffer":0,
			"byteLength":648,
			"byteOffset":10124,
			"target":34962
		},
		{
			"buffer":0,
			"byteLength":648,
			"byteOffset":10772,
			"target":34962
		},
		{
			"buffer":0,
			"byteLength":432,
			"byteOffset":11420,
			"target":34962
		},
		{
			"buffer":0,
			"byteLength":156,
			"byteOffset":11852,
			"target":34963
		},
		{
			"buffer":0,
			"byteLength":1260,
			"byteOffset":12008,
			"target":34962
		},
		{
			"buffer":0,
			"byteLength":1260,
			"byteOffset":13268,
			"target":34962
		},
		{
			"buffer":0,
			"byteLength":840,
			"byteOffset":14528,
			"target":34962
		},
		{
			"buffer":0,
			"byteLength":444,
			"byteOffset":15368,
			"target":34963
		},
		{
			"buffer":0,
			"byteLength":624,
			"byteOffset":15812,
			"target":34962
		},
		{
			"buffer":0,
			"byteLength":624,
			"byteOffset":16436,
			"target":34962
		},
		{
			"buffer":0,
			"byteLength":416,
			"byteOffset":17060,
			"target":34962
		},
		{
			"buffer":0,
			"byteLength":144,
			"byteOffset":17476,
			"target":34963
		},
		{
			"buffer":0,
			"byteLength":1620,
			"byteOffset":17620,
			"target":34962
		},
		{
			"buffer":0,
			"byteLength":1620,
			"byteOffset":19240,
			"target":34962
		},
		{
			"buffer":0,
			"byteLength":1080,
			"byteOffset":20860,
			"target":34962
		},
		{
			"buffer":0,
			"byteLength":390,
			"byteOffset":21940,
			"target":34963
		}
	],
	"samplers":[
		{
			"magFilter":9729,
			"minFilter":9987
		}
	],
	"buffers":[
		{
			"byteLength":22332,
			"uri":"scene.bin"
		}
	]
}
